<svg fill="none" height="24" viewBox="0 0 24 24" width="24" xmlns="http://www.w3.org/2000/svg"><g fill="#0f0f0f"><path clip-rule="evenodd" d="m12.8984 3.61441c-.3656-.74772-1.4312-.74772-1.7968 0l-7.79598 15.94639c-.32479.6643.15889 1.4392.89838 1.4392h15.592c.7395 0 1.2232-.7749.8984-1.4392zm-3.59355-.87842c1.09665-2.243156 4.29365-2.243165 5.39035 0l7.796 15.94641c.9743 1.993-.4767 4.3176-2.6952 4.3176h-15.592c-2.21845 0-3.669521-2.3246-2.69515-4.3176z" fill-rule="evenodd"/><path d="m11 8.49999c0-.55228.4477-1 1-1s1 .44772 1 1v5.50001c0 .5523-.4477 1-1 1s-1-.4477-1-1z"/><path d="m13.5 18c0 .8284-.6715 1.5-1.5 1.5-.8284 0-1.5-.6716-1.5-1.5s.6716-1.5 1.5-1.5c.8285 0 1.5.6716 1.5 1.5z"/></g></svg>